# Blender 3.6.3
# www.blender.org
mtllib ../textures/field.mtl
o Plane
v -4.000000 3.000000 -0.000060
v -4.000000 -3.000000 -0.000060
v 4.000000 3.000000 -0.000060
v 4.000000 -3.000000 -0.000060
v 1.141399 -0.067033 0.010000
v 1.092455 0.241984 0.010000
v 0.950416 0.520752 0.010000
v 0.729184 0.741984 0.010000
v 0.450416 0.884023 0.010000
v 0.141399 0.932967 0.010000
v -0.167618 0.884023 0.010000
v -0.446386 0.741984 0.010000
v -0.667618 0.520752 0.010000
v -0.809658 0.241984 0.010000
v -0.858601 -0.067033 0.010000
v -0.809658 -0.376050 0.010000
v -0.667618 -0.654818 0.010000
v -0.446386 -0.876050 0.010000
v -0.167618 -1.018090 0.010000
v 0.141399 -1.067033 0.010000
v 0.450416 -1.018090 0.010000
v 0.729184 -0.876050 0.010000
v 0.950416 -0.654818 0.010000
v 1.092455 -0.376050 0.010000
v 1.000782 -0.067033 0.010000
v 0.958720 0.198531 0.010000
v 0.836654 0.438099 0.010000
v 0.646531 0.628222 0.010000
v 0.406963 0.750288 0.010000
v 0.141399 0.792350 0.010000
v -0.124165 0.750288 0.010000
v -0.363734 0.628222 0.010000
v -0.553856 0.438099 0.010000
v -0.675923 0.198531 0.010000
v -0.717984 -0.067033 0.010000
v -0.675923 -0.332597 0.010000
v -0.553856 -0.572166 0.010000
v -0.363734 -0.762288 0.010000
v -0.124165 -0.884355 0.010000
v 0.141399 -0.926416 0.010000
v 0.406963 -0.884355 0.010000
v 0.646531 -0.762288 0.010000
v 0.836654 -0.572166 0.010000
v 0.958720 -0.332597 0.010000
v -2.999434 -0.067033 0.010000
v -3.048378 0.241984 0.010000
v -3.190418 0.520752 0.010000
v -3.411649 0.741984 0.010000
v -3.690418 0.884023 0.010000
v -3.999435 0.932967 0.010000
v -3.999435 -1.067033 0.010000
v -3.690418 -1.018090 0.010000
v -3.411649 -0.876050 0.010000
v -3.190418 -0.654818 0.010000
v -3.048378 -0.376050 0.010000
v -3.140052 -0.067033 0.010000
v -3.182113 0.198531 0.010000
v -3.304179 0.438099 0.010000
v -3.494302 0.628222 0.010000
v -3.733871 0.750288 0.010000
v -3.999435 0.792350 0.010000
v -3.999435 -0.926416 0.010000
v -3.733871 -0.884355 0.010000
v -3.494302 -0.762288 0.010000
v -3.304179 -0.572166 0.010000
v -3.182113 -0.332597 0.010000
v 3.997545 0.932967 0.010000
v 3.688527 0.884023 0.010000
v 3.409759 0.741984 0.010000
v 3.188527 0.520752 0.010000
v 3.046488 0.241984 0.010000
v 2.997544 -0.067033 0.010000
v 3.046488 -0.376050 0.010000
v 3.188527 -0.654818 0.010000
v 3.409759 -0.876050 0.010000
v 3.688527 -1.018090 0.010000
v 3.997545 -1.067033 0.010000
v 3.997545 0.792350 0.010000
v 3.731980 0.750288 0.010000
v 3.492412 0.628222 0.010000
v 3.302289 0.438099 0.010000
v 3.180223 0.198531 0.010000
v 3.138162 -0.067033 0.010000
v 3.180223 -0.332597 0.010000
v 3.302289 -0.572166 0.010000
v 3.492412 -0.762288 0.010000
v 3.731980 -0.884355 0.010000
v 3.997545 -0.926416 0.010000
v -0.015084 2.990172 0.009940
v -0.015084 -2.990172 0.009940
v 0.218916 2.990172 0.009940
v 0.218916 -2.990172 0.009940
v 3.999446 -2.834213 0.009940
v -3.836915 3.000719 0.009940
v 3.833983 -2.999676 0.009940
v -4.002378 2.835257 0.009940
v 4.000009 -2.999997 0.009940
v -4.000002 3.000011 0.009940
v 3.877283 3.000243 0.009940
v -3.999751 -2.792659 0.009940
v 4.000046 2.793702 0.009940
v -3.880215 -3.000023 0.009940
v -3.999667 -2.999891 0.009940
v 4.000264 2.999977 0.009940
vn -0.0000 -0.0000 1.0000
vn -0.0000 -0.0000 -1.0000
vt 0.000000 0.000000
vt 1.000000 0.000000
vt 1.000000 1.000000
vt 0.000000 1.000000
s 0
usemtl Material.001
f 19/1/2 18/1/2 38/1/2 39/1/2
f 12/1/2 11/1/2 31/1/2 32/1/2
f 20/1/2 19/1/2 39/1/2 40/1/2
f 13/1/2 12/1/2 32/1/2 33/1/2
f 6/1/2 5/1/2 25/1/2 26/1/2
f 21/1/2 20/1/2 40/1/2 41/1/2
f 14/1/2 13/1/2 33/1/2 34/1/2
f 7/1/2 6/1/2 26/1/2 27/1/2
f 22/1/2 21/1/2 41/1/2 42/1/2
f 15/1/2 14/1/2 34/1/2 35/1/2
f 8/1/2 7/1/2 27/1/2 28/1/2
f 23/1/2 22/1/2 42/1/2 43/1/2
f 16/1/2 15/1/2 35/1/2 36/1/2
f 9/1/2 8/1/2 28/1/2 29/1/2
f 24/1/2 23/1/2 43/1/2 44/1/2
f 17/1/2 16/1/2 36/1/2 37/1/2
f 10/1/2 9/1/2 29/1/2 30/1/2
f 5/1/2 24/1/2 44/1/2 25/1/2
f 18/1/2 17/1/2 37/1/2 38/1/2
f 11/1/2 10/1/2 30/1/2 31/1/2
f 46/1/2 45/1/2 56/1/2 57/1/2
f 52/1/2 51/1/2 62/1/2 63/1/2
f 47/1/2 46/1/2 57/1/2 58/1/2
f 53/1/2 52/1/2 63/1/2 64/1/2
f 48/1/2 47/1/2 58/1/2 59/1/2
f 54/1/2 53/1/2 64/1/2 65/1/2
f 49/1/2 48/1/2 59/1/2 60/1/2
f 55/1/2 54/1/2 65/1/2 66/1/2
f 50/1/2 49/1/2 60/1/2 61/1/2
f 45/1/2 55/1/2 66/1/2 56/1/2
f 76/1/2 75/1/2 86/1/2 87/1/2
f 69/1/2 68/1/2 79/1/2 80/1/2
f 77/1/2 76/1/2 87/1/2 88/1/2
f 70/1/2 69/1/2 80/1/2 81/1/2
f 71/1/2 70/1/2 81/1/2 82/1/2
f 72/1/2 71/1/2 82/1/2 83/1/2
f 73/1/2 72/1/2 83/1/2 84/1/2
f 74/1/2 73/1/2 84/1/2 85/1/2
f 75/1/2 74/1/2 85/1/2 86/1/2
f 68/1/2 67/1/2 78/1/2 79/1/2
f 89/1/1 90/2/1 92/3/1 91/4/1
f 93/3/1 95/2/1 97/3/1
f 96/1/1 94/4/1 98/1/1
f 102/1/1 100/4/1 103/1/1
f 99/3/1 101/2/1 104/3/1
usemtl Material.002
f 1/1/1 2/2/1 4/3/1 3/4/1
