# Blender 3.6.3
# www.blender.org
mtllib ../textures/walls.mtl
o Plane.003
v -4.000916 3.200041 1.799940
v -4.000916 3.200041 0.299940
v 3.997590 3.200041 1.799940
v 3.997590 3.200041 0.299940
v -4.001035 2.997923 0.002657
v 3.996348 2.999500 0.005373
v -4.000916 3.099068 0.149940
v 3.997590 3.099068 0.149940
v 3.997590 3.152833 0.224940
v -4.000916 3.152833 0.224940
v -4.000916 3.050048 0.074940
v 3.997590 3.050048 0.074940
v 3.997590 -3.202034 1.799940
v 3.997590 -3.202034 0.299940
v -4.000916 -3.202035 1.799940
v -4.000916 -3.202035 0.299940
v 3.996349 -3.001729 0.005373
v -4.001034 -3.003382 0.002657
v 3.997590 -3.101060 0.149940
v -4.000916 -3.101061 0.149940
v -4.000916 -3.154827 0.224940
v 3.997590 -3.154826 0.224940
v 3.997590 -3.052041 0.074940
v -4.000916 -3.052042 0.074940
v 4.194119 2.997970 1.810806
v 4.194119 2.997970 0.310807
v 4.194120 -3.000437 1.810806
v 4.194120 -3.000437 0.310807
v 4.093145 2.997970 0.160807
v 4.093147 -3.000437 0.160807
v 4.146913 -3.000437 0.235807
v 4.146912 2.997970 0.235807
v 4.044127 2.997970 0.085807
v 4.044128 -3.000437 0.085807
v 4.194119 0.795182 1.810806
v 4.194119 0.922093 0.310807
v 3.995108 0.922093 0.010807
v 4.093146 0.922093 0.160807
v 4.146913 0.922093 0.235807
v 4.044127 0.922093 0.085807
v 4.194119 -0.926512 1.810806
v 4.194120 -1.061665 0.310807
v 4.093146 -1.061665 0.160807
v 4.146913 -1.061665 0.235807
v 4.044127 -1.061665 0.085807
v 3.995108 -1.061665 0.010807
v 4.194119 2.997970 0.481154
v 4.194120 -3.000437 0.481154
v 4.194119 0.922093 0.481154
v 4.194120 -1.061665 0.481154
v -4.198923 -3.002213 1.810806
v -4.198923 -3.002212 0.310807
v -4.198924 2.993524 1.810806
v -4.198925 2.993524 0.310807
v -4.097949 -3.002212 0.160807
v -4.097951 2.993524 0.160807
v -4.151717 2.993524 0.235807
v -4.151715 -3.002212 0.235807
v -4.048930 -3.002212 0.085807
v -4.048932 2.993524 0.085807
v -4.198924 -0.933950 1.810806
v -4.198924 -1.060861 0.310807
v -3.999912 -1.060861 0.010807
v -4.097950 -1.060861 0.160807
v -4.151717 -1.060861 0.235807
v -4.048932 -1.060861 0.085807
v -4.198924 0.787745 1.810806
v -4.198924 0.922897 0.310807
v -4.097950 0.922897 0.160807
v -4.151717 0.922897 0.235807
v -4.048932 0.922897 0.085807
v -3.999912 0.922897 0.010807
v -4.198923 -3.002212 0.481154
v -4.198925 2.993524 0.481154
v -4.198924 -1.060861 0.481154
v -4.198924 0.922897 0.481154
vn -0.0000 -1.0000 -0.0000
vn -0.0000 -0.8101 0.5863
vn -0.0000 -0.8127 0.5826
vn -0.0000 -0.8463 0.5327
vn -0.0000 -0.8371 0.5471
vn -0.0000 1.0000 -0.0000
vn -0.0002 0.8201 0.5722
vn -0.0000 0.8127 0.5826
vn -0.0000 0.8463 0.5327
vn -0.0000 0.8371 0.5471
vn -1.0000 -0.0000 -0.0000
vn -0.8488 0.0009 0.5286
vn -0.8127 -0.0000 0.5826
vn -0.8463 -0.0000 0.5327
vn -0.8371 -0.0000 0.5471
vn -0.8488 -0.0010 0.5286
vn -0.7180 0.6947 0.0426
vn -0.7189 -0.6938 0.0426
vn 1.0000 -0.0000 -0.0000
vn 0.8526 -0.0013 0.5225
vn 0.8127 -0.0000 0.5826
vn 0.8463 -0.0000 0.5327
vn 0.8371 -0.0000 0.5471
vn 0.8526 0.0013 0.5225
vn 0.7119 0.7010 0.0425
vn 0.7236 -0.6890 0.0406
vn -0.0000 -0.0000 -1.0000
vt 0.000000 0.000000
vt 1.000000 0.000000
vt 1.000000 1.000000
vt 0.000000 1.000000
vt 0.886435 0.644673
vt 1.000000 0.644673
vt 0.886435 1.000000
vt 1.000000 0.375487
vt 1.000000 0.375487
vt 0.886435 0.000000
vt 0.886435 0.375487
vt 1.000000 0.644674
vt 1.000000 0.644674
vt 1.000000 0.644674
vt 0.000000 0.375487
vt 0.000000 0.644674
s 0
usemtl Material.005
f 1/1/1 2/2/1 4/3/1 3/4/1
f 12/3/2 11/2/2 5/2/2 6/3/2
f 9/3/3 10/2/3 7/2/3 8/3/3
f 4/3/4 2/2/4 10/2/4 9/3/4
f 8/3/5 7/2/5 11/2/5 12/3/5
f 13/1/6 14/2/6 16/3/6 15/4/6
f 24/3/7 23/2/7 17/2/7 18/3/7
f 21/3/8 22/2/8 19/2/8 20/3/8
f 16/3/9 14/2/9 22/2/9 21/3/9
f 20/3/10 19/2/10 23/2/10 24/3/10
f 50/5/11 42/6/11 28/3/11 48/7/11
f 40/8/12 33/2/12 6/2/12 37/8/12
f 39/9/13 32/2/13 29/2/13 38/8/13
f 36/9/14 26/2/14 32/2/14 39/9/14
f 38/8/15 29/2/15 33/2/15 40/8/15
f 47/10/11 26/2/11 36/9/11 49/11/11
f 34/3/16 45/12/16 46/13/16 17/3/16
f 31/3/13 44/14/13 43/12/13 30/3/13
f 28/3/14 42/6/14 44/14/14 31/3/14
f 30/3/15 43/12/15 45/12/15 34/3/15
f 35/15/11 49/11/11 50/5/11 41/16/11
f 25/1/11 47/10/11 49/11/11 35/15/11
f 41/16/11 50/5/11 48/7/11 27/4/11
f 14/2/17 13/1/17 27/4/17 48/7/17 28/3/17 31/3/17 30/3/17 34/3/17 17/2/17 23/2/17 19/2/17 22/2/17
f 3/4/18 4/3/18 9/3/18 8/3/18 12/3/18 6/2/18 33/2/18 29/2/18 32/2/18 26/2/18 47/10/18 25/1/18
f 76/5/19 68/6/19 54/3/19 74/7/19
f 66/8/20 59/2/20 18/2/20 63/8/20
f 65/9/21 58/2/21 55/2/21 64/8/21
f 62/9/22 52/2/22 58/2/22 65/9/22
f 64/8/23 55/2/23 59/2/23 66/8/23
f 73/10/19 52/2/19 62/9/19 75/11/19
f 60/3/24 71/12/24 72/13/24 5/3/24
f 57/3/21 70/14/21 69/12/21 56/3/21
f 54/3/22 68/6/22 70/14/22 57/3/22
f 56/3/23 69/12/23 71/12/23 60/3/23
f 61/15/19 75/11/19 76/5/19 67/16/19
f 51/1/19 73/10/19 75/11/19 61/15/19
f 67/16/19 76/5/19 74/7/19 53/4/19
f 15/4/25 16/3/25 21/3/25 20/3/25 24/3/25 18/2/25 59/2/25 55/2/25 58/2/25 52/2/25 73/10/25 51/1/25
f 2/2/26 1/1/26 53/4/26 74/7/26 54/3/26 57/3/26 56/3/26 60/3/26 11/2/26 7/2/26 10/2/26
f 1/1/27 3/4/27 25/1/27 35/15/27 41/16/27 27/4/27 13/1/27 15/4/27 51/1/27 61/15/27 67/16/27 53/4/27
